inDegrees=yes
name=ik_S56_A13_T02
DataType=double
version=3
OpenSimVersion=4.3-2021-08-27-4bc7ad9
endheader
time	pelvis_tilt	pelvis_list	pelvis_rotation	pelvis_tx	pelvis_ty	pelvis_tz	hip_flexion_r	hip_adduction_r	hip_rotation_r	knee_angle_r	knee_angle_r_beta	ankle_angle_r	subtalar_angle_r	mtp_angle_r	hip_flexion_l	hip_adduction_l	hip_rotation_l	knee_angle_l	knee_angle_l_beta	ankle_angle_l	subtalar_angle_l	mtp_angle_l	lumbar_extension	lumbar_bending	lumbar_rotation	arm_flex_r	arm_add_r	arm_rot_r	elbow_flex_r	pro_sup_r	wrist_flex_r	wrist_dev_r	arm_flex_l	arm_add_l	arm_rot_l	elbow_flex_l	pro_sup_l	wrist_flex_l	wrist_dev_l
6.45999999999995	-0.8958310615351379	2.179599944589212	27.47164967166798	0	0.9399999999999999	0	28.38469847148693	-9.086495735491432	-8.190920417143074	33.50328041594447	0.5847425534771662	0	0	0	28.38469847148693	-9.086495735491432	-8.190920417143074	33.50328041594447	0.5847425534771662	0	0	0	1.671394578860346	3.469036895758624	9.897816273026422	62.69431933780368	-20.66653731305177	38.17887762555864	28.00860848258424	144.2567716331988	0	0	112.0330263629498	-9.414139891141147	48.83506408358652	14.67992577688263	105.6474095701658	0	0
6.47999999999995	-0.9085956893658835	2.156086595845461	27.42734663258732	0	0.9399999999999999	0	28.37161934396203	-9.085861704427261	-8.189043257566722	33.49016828522595	0.5845137036241762	0	0	0	28.37161934396203	-9.085861704427261	-8.189043257566722	33.49016828522595	0.5845137036241762	0	0	0	1.650495301273026	3.454200167051756	9.890375878575307	62.72570515999086	-20.60755865549566	38.16572351488374	28.00087123235715	144.2740491531956	0	0	112.0537282670356	-9.443808284685252	48.77414305418419	14.6679648722409	105.6793075015979	0	0
6.499999999999949	-0.9608626670828503	2.136474166552062	27.37924525636083	0	0.9399999999999999	0	28.34549768334738	-9.083197477542962	-8.18468631224601	33.45609913414362	0.5839190847644302	0	0	0	28.34549768334738	-9.083197477542962	-8.18468631224601	33.45609913414362	0.5839190847644302	0	0	0	1.600018852903553	3.454323140465764	9.800368539108549	60.86070608855464	-19.89063135492774	36.23215932719945	25.4239109000207	147.7708111181405	0	0	112.1943411070547	-9.605463218153142	48.7759447940233	14.39545828528131	107.1700171181506	0	0
6.519999999999949	-1.003897486791991	2.110941728866319	27.31870041411095	0	0.9399999999999999	0	28.35169429750854	-9.084324316246338	-8.186122006247359	33.4618583594883	0.5840196022090591	0	0	0	28.35169429750854	-9.084324316246338	-8.186122006247359	33.4618583594883	0.5840196022090591	0	0	0	1.552281800267451	3.448260147587094	9.729289030270703	60.34453898665814	-19.48065865502907	35.82952886205222	24.53991428615398	148.8911601833628	0	0	112.2086850436681	-9.761176364603973	48.83648536282641	14.43433176336311	108.1365997139272	0	0
6.539999999999949	-1.001136445095869	2.106028340569714	27.39776177101455	0	0.9399999999999999	0	28.35801893666687	-9.085470441475518	-8.187584314709275	33.46775164564528	0.5841224594562606	0	0	0	28.35801893666687	-9.085470441475518	-8.187584314709275	33.46775164564528	0.5841224594562606	0	0	0	1.554204565351673	3.438638819035601	9.655317148638973	59.91825530896805	-19.29473388829533	35.65296578989867	24.0957957442807	149.0181338278511	0	0	112.243200726112	-9.756173774486722	48.85377030428116	14.49015542886924	109.7395884314853	0	0
6.559999999999948	-1.052054556611927	2.055784751825427	27.41630725131158	0	0.9399999999999999	0	28.36377238223718	-9.08650726676483	-8.188910033391792	33.47313661060038	0.5842164448248318	0	0	0	28.36377238223718	-9.08650726676483	-8.188910033391792	33.47313661060038	0.5842164448248318	0	0	0	1.48810746399032	3.413047521747169	9.55980368753252	59.90522023833446	-19.21890049617373	35.64267213434386	24.27454096994841	148.7736900825581	0	0	112.2985392715013	-9.805154911714354	49.01986829298137	14.60492107232658	111.5646488363792	0	0
6.579999999999948	-1.159043456546242	1.993008751275926	27.34752499051523	0	0.9399999999999999	0	28.37346946966307	-9.08824651524446	-8.191137994864542	33.48224669046471	0.5843754457135838	0	0	0	28.37346946966307	-9.08824651524446	-8.191137994864542	33.48224669046471	0.5843754457135838	0	0	0	1.361339556594875	3.409447564881482	9.625619683126459	60.31425142208414	-19.37135395765752	35.6644716690901	24.90321640689092	148.6234585479337	0	0	112.3799794309926	-9.773717480833236	48.89792346201367	14.68231948182824	112.5539032463697	0	0
6.599999999999947	-1.199671291555062	1.951432573368522	27.41062680939061	0	0.9399999999999999	0	28.37971428877539	-9.089367683787362	-8.192573917795984	33.48810348015606	0.5844776659772949	0	0	0	28.37971428877539	-9.089367683787362	-8.192573917795984	33.48810348015606	0.5844776659772949	0	0	0	1.306660991998387	3.389837582465064	9.585844946832253	60.9413047489832	-19.52865862566755	35.71782943672027	25.86858560180988	148.7068390260876	0	0	112.32679066151	-9.674138656796622	48.95803816495501	14.86011750656133	113.8367507462726	0	0
6.619999999999947	-1.213697082433207	1.917253606809723	27.5639353684071	0	0.9399999999999999	0	28.38852679137945	-9.090963130956643	-8.194611397519415	33.49629860281248	0.5846206978502541	0	0	0	28.38852679137945	-9.090963130956643	-8.194611397519415	33.49629860281248	0.5846206978502541	0	0	0	1.278923858318915	3.364909192979821	9.547165921635147	61.75726754536473	-19.79576492679095	35.91215149101531	27.35987360588011	148.1653825191072	0	0	112.1672898926483	-9.428051478392691	49.08607179965971	15.08339812317663	114.8555006600657	0	0
6.639999999999946	-1.217952238125725	1.883284738623042	27.62508247836355	0	0.9399999999999999	0	28.39819489679451	-9.092718070104096	-8.196850896036521	33.50525848984722	0.5847770773796171	0	0	0	28.39819489679451	-9.092718070104096	-8.196850896036521	33.50525848984722	0.5847770773796171	0	0	0	1.257077630715027	3.339644129749077	9.588423104323333	63.85834297418764	-20.28549420744653	36.55091080538685	28.61043603740595	146.7210698783877	0	0	112.0237363380519	-9.173744980138434	49.17875557684776	15.32286162616799	116.0040120306479	0	0
6.659999999999946	-1.219758731658553	1.846522640575283	27.80584942233949	0	0.9399999999999999	0	28.41804900348196	-9.096305800136687	-8.201440664158836	33.52365773738388	0.5850982048290212	0	0	0	28.41804900348196	-9.096305800136687	-8.201440664158836	33.52365773738388	0.5850982048290212	0	0	0	1.243544392100216	3.30255186109988	9.489740260990242	65.4514759958512	-20.63358402379855	36.81492637440517	33.38259718271371	144.1918223737041	0	0	111.9034640996706	-8.939446977751949	49.12057937546435	15.26917378831112	116.0829482009935	0	0
